<?xml version="1.0" encoding="iso-8859-1"?>
<!-- Generator: Adobe Illustrator 16.0.0, SVG Export Plug-In . SVG Version: 6.00 Build 0)  -->
<!DOCTYPE svg PUBLIC "-//W3C//DTD SVG 1.1//EN" "http://www.w3.org/Graphics/SVG/1.1/DTD/svg11.dtd">
<svg version="1.1" id="Capa_1" xmlns="http://www.w3.org/2000/svg" xmlns:xlink="http://www.w3.org/1999/xlink" x="0px" y="0px"
	 width="100%" height="100%" viewBox="0 0 587.52 587.52" style="enable-background:new 0 0 587.52 587.52;"
	 xml:space="preserve">
<g>
	<g>
		<path d="M139.231,335.581c0-5.07-4.109-9.18-9.18-9.18H83.129c-5.07,0-9.18,4.109-9.18,9.18V382.5c0,5.07,4.11,9.18,9.18,9.18
			h46.919c5.07,0,9.18-4.109,9.18-9.18v-46.919H139.231z"/>
		<path d="M73.949,270.302c0-5.071-4.109-9.18-9.18-9.18H17.851c-5.071,0-9.18,4.109-9.18,9.18v46.918
			c0,5.07,4.109,9.181,9.18,9.181H64.77c5.07,0,9.18-4.11,9.18-9.181V270.302z"/>
		<path d="M83.129,195.84c-5.07,0-9.18,4.11-9.18,9.18v46.919c0,5.07,4.11,9.18,9.18,9.18h46.919c5.07,0,9.18-4.11,9.18-9.18V205.02
			c0-5.07-4.11-9.18-9.18-9.18H83.129z"/>
		<path d="M148.412,130.561c-5.071,0-9.18,4.109-9.18,9.18v46.919c0,5.07,4.109,9.18,9.18,9.18h46.919c5.07,0,9.18-4.109,9.18-9.18
			v-46.919c0-5.071-4.109-9.18-9.18-9.18H148.412z"/>
		<path d="M269.79,121.381V74.462c0-5.07-4.11-9.18-9.18-9.18H213.69c-5.07,0-9.18,4.109-9.18,9.18v46.919
			c0,5.071,4.11,9.18,9.18,9.18h46.919C265.68,130.561,269.79,126.452,269.79,121.381z"/>
		<path d="M335.072,56.102V9.18c0-5.071-4.11-9.18-9.181-9.18h-46.922c-5.07,0-9.18,4.109-9.18,9.18v46.919
			c0,5.07,4.109,9.18,9.18,9.18h46.919C330.958,65.282,335.072,61.169,335.072,56.102z"/>
		<path d="M204.51,400.86c0-5.07-4.109-9.181-9.18-9.181h-46.919c-5.071,0-9.18,4.11-9.18,9.181v46.919c0,5.07,4.109,9.18,9.18,9.18
			h46.919c5.07,0,9.18-4.109,9.18-9.18V400.86z"/>
		<path d="M269.79,466.142c0-5.07-4.11-9.18-9.18-9.18H213.69c-5.07,0-9.18,4.109-9.18,9.18v46.919c0,5.071,4.11,9.181,9.18,9.181
			h46.919c5.07,0,9.18-4.109,9.18-9.181V466.142z"/>
		<path d="M325.891,522.241h-46.922c-5.07,0-9.18,4.109-9.18,9.18v46.919c0,5.07,4.109,9.18,9.18,9.18h46.919
			c5.07,0,9.181-4.109,9.181-9.18v-46.919C335.072,526.351,330.958,522.241,325.891,522.241z"/>
		<path d="M383.009,335.581c0-5.07-4.109-9.18-9.18-9.18h-46.919c-5.07,0-9.181,4.109-9.181,9.18V382.5c0,5.07,4.11,9.18,9.181,9.18
			h46.919c5.07,0,9.18-4.109,9.18-9.18V335.581z"/>
		<path d="M261.631,326.401h46.919c5.07,0,9.18-4.11,9.18-9.181v-46.918c0-5.071-4.109-9.18-9.18-9.18h-46.919
			c-5.07,0-9.18,4.109-9.18,9.18v46.918C252.452,322.291,256.561,326.401,261.631,326.401z"/>
		<path d="M326.911,261.122h46.919c5.07,0,9.18-4.109,9.18-9.18V205.02c0-5.07-4.109-9.18-9.18-9.18h-46.919
			c-5.07,0-9.181,4.11-9.181,9.18v46.919C317.73,257.009,321.84,261.122,326.911,261.122z"/>
		<path d="M392.189,130.561c-5.07,0-9.18,4.109-9.18,9.18v46.919c0,5.07,4.109,9.18,9.18,9.18h46.92c5.07,0,9.18-4.109,9.18-9.18
			v-46.919c0-5.071-4.109-9.18-9.18-9.18H392.189z"/>
		<path d="M457.471,65.282c-5.07,0-9.18,4.109-9.18,9.18v46.919c0,5.071,4.109,9.18,9.18,9.18h46.919c5.07,0,9.181-4.109,9.181-9.18
			V74.462c0-5.07-4.11-9.18-9.181-9.18H457.471z"/>
		<path d="M569.669,0H522.75c-5.07,0-9.18,4.109-9.18,9.18v46.919c0,5.07,4.109,9.18,9.18,9.18h46.919c5.07,0,9.18-4.109,9.18-9.18
			V9.18C578.849,4.109,574.74,0,569.669,0z"/>
		<path d="M448.292,400.86c0-5.07-4.109-9.181-9.18-9.181h-46.919c-5.07,0-9.181,4.11-9.181,9.181v46.919
			c0,5.07,4.11,9.18,9.181,9.18h46.919c5.07,0,9.18-4.109,9.18-9.18V400.86L448.292,400.86z"/>
		<path d="M513.571,466.142c0-5.07-4.11-9.18-9.181-9.18h-46.919c-5.07,0-9.18,4.109-9.18,9.18v46.919
			c0,5.071,4.109,9.181,9.18,9.181h46.919c5.07,0,9.181-4.109,9.181-9.181V466.142L513.571,466.142z"/>
		<path d="M569.669,522.241H522.75c-5.07,0-9.18,4.109-9.18,9.18v46.919c0,5.07,4.109,9.18,9.18,9.18h46.919
			c5.07,0,9.18-4.109,9.18-9.18v-46.919C578.849,526.351,574.74,522.241,569.669,522.241z"/>
	</g>
</g>
<g>
</g>
<g>
</g>
<g>
</g>
<g>
</g>
<g>
</g>
<g>
</g>
<g>
</g>
<g>
</g>
<g>
</g>
<g>
</g>
<g>
</g>
<g>
</g>
<g>
</g>
<g>
</g>
<g>
</g>
</svg>
